G:\RME\Thesis\opencap-processing\Data\6bca726f-ff49-494f-a035-472a00a81e0d\OpenSimData\Dynamics\walking\GRF_resultant_walking_0.mot
version=1
nRows=12
nColumns=19
inDegrees=yes
endheader 
time	ground_force_right_vx	ground_force_right_vy	ground_force_right_vz	ground_force_right_px	ground_force_right_py	ground_force_right_pz	ground_torque_right_x	ground_torque_right_y	ground_torque_right_z	ground_force_left_vx	ground_force_left_vy	ground_force_left_vz	ground_force_left_px	ground_force_left_py	ground_force_left_pz	ground_torque_left_x	ground_torque_left_y	ground_torque_left_z	
          1.15000000	          1.29148364	        664.04018403	        -39.76882301	          1.51177664	          0.00000000	         -0.14075557	          0.00000000	         -7.93966163	          0.00000000	        -34.68872663	         16.06284519	          8.12927411	          1.34851435	          0.00000000	         -0.35617885	          0.00000000	         -0.00000008	          0.00000000	
          1.16000000	          0.28221073	        669.80412228	        -36.22750807	          1.51191705	          0.00000000	         -0.13978577	          0.00000000	         -7.37512297	          0.00000000	        -41.84040130	         18.97201453	          8.13668376	          1.37475125	          0.00000000	         -0.36151526	          0.00000000	         -0.00000010	          0.00000000	
          1.17000000	          1.52198933	        678.56150084	        -30.61919103	          1.51260892	          0.00000000	         -0.13866165	          0.00000000	         -6.92574624	          0.00000000	        -49.44695360	         22.26024659	          7.59156566	          1.40137363	          0.00000000	         -0.36602895	          0.00000000	         -0.00000031	          0.00000000	
          1.18000000	         -0.95549566	        687.21544953	        -24.40375478	          1.51369077	          0.00000000	         -0.13745267	          0.00000000	         -6.57017352	          0.00000000	        -56.34623670	         25.39634888	          6.33084125	          1.42802310	          0.00000000	         -0.36962249	          0.00000000	         -0.00000196	          0.00000000	
          1.19000000	         -1.33888108	        694.28389968	        -18.08742222	          1.51518106	          0.00000000	         -0.13618917	          0.00000000	         -6.17129128	          0.00000000	        -61.01376785	         27.76218551	          4.34497858	          1.45444903	          0.00000000	         -0.37225590	          0.00000000	         -0.00001330	          0.00000000	
          1.20000000	         -7.09254273	        697.40187033	        -12.68237947	          1.51680308	          0.00000000	         -0.13497233	          0.00000000	         -5.66438996	          0.00000000	        -62.11444425	         28.62675742	          1.96426564	          1.48046315	          0.00000000	         -0.37391849	          0.00000000	         -0.00007260	          0.00000000	
          1.21000000	        -11.48974809	        698.19666831	        -11.95991751	          1.51853403	          0.00000000	         -0.13386769	          0.00000000	         -5.16423792	          0.00000000	        -58.36603043	         27.35784561	         -0.21381348	          1.50593350	          0.00000000	         -0.37462537	          0.00000000	         -0.00029508	          0.00000000	
          1.22000000	        -21.05995013	        696.56170133	        -14.11378665	          1.52009234	          0.00000000	         -0.13293551	          0.00000000	         -4.60094459	          0.00000000	        -50.11768611	         23.88434876	         -1.65697441	          1.53060942	          0.00000000	         -0.37435763	          0.00000000	         -0.00085954	          0.00000000	
          1.23000000	        -27.72899822	        694.57233936	        -21.43127909	          1.52140345	          0.00000000	         -0.13224406	          0.00000000	         -4.03274950	          0.00000000	        -38.75206730	         18.78410721	         -2.27260400	          1.55400068	          0.00000000	         -0.37294150	          0.00000000	         -0.00173234	          0.00000000	
          1.24000000	        -33.82495756	        694.03721042	        -30.82227937	          1.52230540	          0.00000000	         -0.13177677	          0.00000000	         -3.61790487	          0.00000000	        -26.44870906	         13.00791577	         -1.94675845	          1.57512332	          0.00000000	         -0.37000357	          0.00000000	         -0.00231918	          0.00000000	
          1.25000000	        -38.17922167	        694.27641582	        -42.25972083	          1.52263964	          0.00000000	         -0.13159131	          0.00000000	         -3.09075368	          0.00000000	        -15.92668130	          7.92699026	         -1.35369766	          1.59250470	          0.00000000	         -0.36502300	          0.00000000	         -0.00186204	          0.00000000	
          1.26000000	        -38.90254903	        697.35982273	        -50.39285419	          1.52236645	          0.00000000	         -0.13161064	          0.00000000	         -2.73958113	          0.00000000	         -9.22169680	          4.63429559	         -0.81849723	          1.60593011	          0.00000000	         -0.35834986	          0.00000000	         -0.00073820	          0.00000000	
